<?xml version="1.0" standalone="no"?><!DOCTYPE svg PUBLIC "-//W3C//DTD SVG 1.1//EN" "http://www.w3.org/Graphics/SVG/1.1/DTD/svg11.dtd"><svg t="1692860874559" class="icon" viewBox="0 0 1194 1024" version="1.1" xmlns="http://www.w3.org/2000/svg" p-id="17864" xmlns:xlink="http://www.w3.org/1999/xlink" width="233.203125" height="200"><path d="M128.668513 1023.631401a54.69265 54.69265 0 0 1-55.631214-52.047609l109.214653-589.588478v-1.621155c0-29.522086 24.914593-53.498115 55.716538-53.498115h900.167648c30.204677 0 54.948622 23.208114 55.887186 52.047608l-109.214653 589.588478v1.621155a54.69265 54.69265 0 0 1-55.801862 53.498116H128.668513z m679.263948-280.374493c14.163775 0 28.242227-16.979466 33.020368-33.958931 0-16.979466-4.778141-39.590312-14.163776-50.853073L666.721327 443.599204c-18.771268-22.610846-47.098819-22.610846-65.870087 0L440.783514 658.444904C426.619738 669.707665 426.619738 692.318512 426.619738 709.297977c0 16.979466 14.163775 33.958931 32.935044 33.958931h113.054231v141.296458c0 22.610846 14.078451 39.590312 32.935044 39.590312h65.870087c18.856592 0 32.935044-16.979466 32.935044-39.590312V743.256908H808.017785zM182.337276 255.801195c-40.358227 0-73.293271 30.887269-73.378595 68.771102L1.023887 892.488493V69.368369C1.109211 31.569861 30.545973 0.853239 66.979299 0.853239H396.756357l98.890455 102.900681h494.366953c36.433326 0 65.955412 30.716621 65.955412 68.600454V255.971843H182.337276z" fill="#F5A623" p-id="17865"></path></svg>